<svg width="162" height="48" viewBox="0 0 162 48" fill="none" xmlns="http://www.w3.org/2000/svg">
<g clip-path="url(#clip0_23_85)">
<path d="M54.9968 38.7088C54.9968 40.4879 54.0298 41.3309 52.9512 41.3309C52.4243 41.3309 51.9346 41.052 51.6432 40.7359V41.2194H50.6328V34.5308L51.6432 34.0039V36.5144C52.0214 36.1673 52.4553 35.9132 53.0008 35.9132C54.1166 35.9132 54.9968 36.7252 54.9968 38.7026V38.7088ZM53.9802 38.7398C53.9802 37.4319 53.5649 36.8616 52.8148 36.8616C52.3313 36.8616 51.9036 37.1901 51.637 37.5249V39.713C51.8664 40.0168 52.3375 40.3949 52.852 40.3949C53.5835 40.3949 53.9802 39.8432 53.9802 38.7398Z" fill="#3366CC"/>
<path d="M60.4959 36.0312L57.8862 43.0545H56.8076L57.5577 41.1267L55.6484 36.0312H56.7642L57.6135 38.5728C57.7623 39.0253 58.0102 39.8002 58.066 40.0853C58.1528 39.7816 58.3697 39.0377 58.5309 38.5914L59.4111 36.0312H60.4897H60.4959Z" fill="#3366CC"/>
<path d="M63.6719 34.6078H68.6186V36.0707H65.4138V37.1927H68.5504V38.668H65.4138V39.883H68.6186V41.3459H63.6719V34.6016V34.6078Z" fill="#3366CC"/>
<path d="M74.674 39.0911L73.2048 41.3537H71.1406L73.4962 37.8948L71.2894 34.6094H73.3412L74.6678 36.7232L75.9695 34.6094H78.0337L75.8394 37.8824L78.1825 41.3475H76.1307L74.6678 39.0849L74.674 39.0911Z" fill="#3366CC"/>
<path d="M81.9219 36.1281H80.0312V34.6094H85.542V36.1281H83.6638V41.3537H81.9219V36.1281Z" fill="#3366CC"/>
<path d="M90.9163 34.5C92.9805 34.5 94.5179 35.9381 94.5179 37.99C94.5179 40.0418 92.9805 41.4799 90.9163 41.4799C88.8521 41.4799 87.3086 40.0418 87.3086 37.99C87.3086 35.9381 88.8583 34.5 90.9163 34.5ZM90.9163 36.0373C89.7943 36.0373 89.0753 36.8866 89.0753 37.99C89.0753 39.0933 89.7943 39.9426 90.9163 39.9426C92.0383 39.9426 92.745 39.081 92.745 37.99C92.745 36.899 92.0259 36.0373 90.9163 36.0373Z" fill="#3366CC"/>
<path d="M99.4548 39.0664H98.5622V41.3537H96.8203V34.6094H100.199C101.693 34.6094 102.542 35.6012 102.542 36.8534C102.542 38.0249 101.823 38.651 101.197 38.8742L102.573 41.3537H100.583L99.4486 39.0664H99.4548ZM99.9383 36.0723H98.5622V37.591H99.9383C100.391 37.591 100.775 37.2997 100.775 36.8348C100.775 36.3698 100.391 36.0785 99.9383 36.0785V36.0723Z" fill="#3366CC"/>
<path d="M107.158 38.6324L104.598 34.6094H106.556L108.019 37.0951L109.464 34.6094H111.435L108.887 38.6324V41.3537H107.145V38.6324H107.158Z" fill="#3366CC"/>
<path d="M30.6596 1.25376L2.49405 12.0486C0.689465 12.7402 -0.212761 14.7638 0.478869 16.5684L11.2737 44.734C11.9653 46.5385 13.9889 47.4408 15.7935 46.7491L43.9591 35.9543C45.7637 35.2627 46.6659 33.2391 45.9743 31.4345L35.1794 3.26893C34.4878 1.46435 32.4642 0.562128 30.6596 1.25376Z" fill="#3366CC"/>
<path d="M29.6311 7.21497C28.2987 7.21497 27.2195 8.32434 27.2195 9.69401V15.966H20.9493C17.1209 15.966 14.0039 19.1702 14.0039 23.1056V30.1399C14.0039 34.0754 17.1209 37.2796 20.9493 37.2796H29.6311C30.9635 37.2796 32.0427 36.1702 32.0427 34.8005V9.69401C32.0427 8.32434 30.9635 7.21497 29.6311 7.21497ZM18.8271 30.1399V23.1056C18.8271 21.9033 19.7797 20.9241 20.9493 20.9241H27.2195V32.3277H20.9493C19.7797 32.3277 18.8271 31.3484 18.8271 30.1461V30.1399Z" fill="white"/>
<path d="M56.419 4.875C59.1049 4.875 61.9473 5.31699 64.4496 7.99615C66.2516 9.93413 67.3804 12.5793 67.3804 16.1084C67.3804 19.6376 66.2788 22.2555 64.5992 24.1187C61.7909 27.2739 58.2753 27.5119 56.5686 27.5119H49.9727V4.875H56.419ZM54.6782 23.0987H55.9294C56.9086 23.0987 59.0437 22.9967 60.5737 21.5688C61.6753 20.5488 62.5593 18.6176 62.5593 16.1016C62.5593 13.5857 61.6753 12.0965 60.8797 11.2125C59.3497 9.51253 57.3641 9.27454 55.9294 9.27454H54.6782V23.0919V23.0987Z" fill="#3366CC"/>
<path d="M83.489 20.8578H73.7039C73.7039 21.6398 73.9691 22.687 74.4995 23.3398C75.1455 24.1218 76.0295 24.251 76.6755 24.251C77.3215 24.251 77.9403 24.1218 78.3823 23.8294C78.4435 23.7954 78.9399 23.435 79.2935 22.619L83.2918 23.0746C82.707 25.1281 81.5306 26.2093 80.769 26.7329C79.5042 27.5829 78.0967 27.8073 76.6279 27.8073C74.6627 27.8073 72.9287 27.4129 71.3988 25.7197C70.2564 24.4482 69.4336 22.5238 69.4336 20.103C69.4336 18.0154 70.1068 15.8599 71.4328 14.3571C73.0171 12.5959 74.9891 12.2695 76.4579 12.2695C77.9267 12.2695 80.0414 12.5619 81.6598 14.4591C83.217 16.2883 83.5094 18.573 83.5094 20.3682V20.8578H83.489ZM79.579 18.0494C79.5518 17.9203 79.3411 17.0023 78.7291 16.3495C78.2599 15.8599 77.5799 15.5335 76.7299 15.5335C75.6419 15.5335 74.9959 16.0231 74.5879 16.4787C74.2615 16.8731 73.9691 17.3899 73.8535 18.0426H79.579V18.0494Z" fill="#3366CC"/>
<path d="M88.5396 12.8438L92.5379 21.738L96.5363 12.8438L100.501 14.5709L93.8639 27.9939H91.2187L84.582 14.5709L88.5464 12.8438H88.5396Z" fill="#3366CC"/>
<path d="M115.101 27.3238H99.6719L105.724 19.9935C106.785 18.6811 108.389 16.4984 109.022 15.424C109.477 14.6148 110.232 13.1732 110.232 11.6228C110.232 10.7796 109.933 9.90925 109.443 9.40606C109.049 9.00487 108.383 8.76687 107.601 8.76687C106.723 8.76687 106.145 9.10007 105.758 9.57606C105.214 10.2492 104.908 11.4596 104.908 12.33H100.25C100.399 10.3784 101.1 8.16168 102.337 6.7133C103.303 5.57091 105.03 4.39453 107.907 4.39453C110.783 4.39453 112.415 5.74091 113.142 6.5093C114.23 7.71968 115.019 9.56926 115.019 11.888C115.019 13.8736 114.475 15.3152 113.51 16.8316C112.632 18.1779 108.158 23.6587 108.158 23.6587H115.114V27.3238H115.101Z" fill="#3366CC"/>
<path d="M124.417 2.47656L124.417 31.9944C124.417 33.6264 124.328 36.0404 122.717 37.8016C121.425 39.2363 119.072 40.0523 117.807 40.0523L115.148 36.8224C115.529 36.8224 117.318 36.7748 118.854 35.1632C119.534 34.4492 119.895 32.8716 119.895 31.9536L119.895 2.47656H124.417Z" fill="#3366CC"/>
<path d="M140.735 25.3207C139.559 26.6263 137.553 27.6735 134.996 27.6735C132.439 27.6735 130.434 26.6263 129.257 25.3207C127.931 23.8519 127.285 21.7644 127.285 19.9012C127.285 18.038 127.931 15.9505 129.257 14.4817C130.434 13.1761 132.439 12.1289 134.996 12.1289C137.553 12.1289 139.559 13.1761 140.735 14.4817C142.061 15.9505 142.707 18.038 142.707 19.9012C142.707 21.7644 142.061 23.8519 140.735 25.3207ZM132.609 17.1608C131.991 17.8476 131.637 18.7248 131.637 19.9012C131.637 21.2408 132.106 22.0908 132.609 22.6416C133.14 23.2263 133.908 23.6887 135.023 23.6887C135.969 23.6887 136.757 23.3283 137.376 22.6416C137.995 21.9548 138.349 21.0776 138.349 19.9012C138.349 18.7248 137.995 17.8476 137.376 17.1608C136.757 16.474 135.962 16.1136 134.989 16.1136C134.017 16.1136 133.221 16.474 132.603 17.1608H132.609Z" fill="#3366CC"/>
<path d="M161.381 20.0407C161.381 18.1775 160.735 16.09 159.409 14.6212C158.661 13.7984 157.587 13.0776 156.247 12.656C155.574 12.4112 154.853 12.2684 154.099 12.2684C154.024 12.2684 153.949 12.2752 153.874 12.282C153.806 12.282 153.738 12.2684 153.67 12.2684C152.269 12.2684 151.045 12.588 150.019 13.0844V2.47656H145.789V28.0102H150.019V26.997C151.039 27.4934 152.269 27.813 153.67 27.813C153.765 27.813 153.854 27.7994 153.949 27.7994C154.024 27.7994 154.085 27.813 154.16 27.813C155.268 27.813 156.2 27.5818 157.016 27.1466C158.002 26.7182 158.811 26.1266 159.409 25.467C160.735 23.9982 161.381 21.9107 161.381 20.0475V20.0407ZM156.982 20.0747C156.982 21.1491 156.574 22.1011 155.955 22.7539C155.309 23.4407 154.486 23.7671 153.752 23.7671C152.956 23.7671 152.018 23.4067 151.345 22.6927C150.848 22.1691 150.379 21.2919 150.379 20.0815C150.379 18.8711 150.821 17.9939 151.317 17.4023C151.991 16.6204 152.786 16.328 153.697 16.328C154.547 16.328 155.282 16.5864 155.962 17.3071C156.581 17.9599 156.989 18.9051 156.989 20.0815L156.982 20.0747Z" fill="#3366CC"/>
</g>
<defs>
<clipPath id="clip0_23_85">
<rect width="162" height="48" fill="white"/>
</clipPath>
</defs>
</svg>
