<svg width="18" height="19" viewBox="0 0 18 19" fill="none" xmlns="http://www.w3.org/2000/svg">
<g clip-path="url(#clip0_23_165)">
<path d="M17.25 9.5L15.42 7.4075L15.675 4.64L12.9675 4.025L11.55 1.625L9 2.72L6.45 1.625L5.0325 4.0175L2.325 4.625L2.58 7.4L0.75 9.5L2.58 11.5925L2.325 14.3675L5.0325 14.9825L6.45 17.375L9 16.2725L11.55 17.3675L12.9675 14.975L15.675 14.36L15.42 11.5925L17.25 9.5ZM7.035 12.5075L5.25 10.7075C4.9575 10.415 4.9575 9.9425 5.25 9.65L5.3025 9.5975C5.595 9.305 6.075 9.305 6.3675 9.5975L7.575 10.8125L11.4375 6.9425C11.73 6.65 12.21 6.65 12.5025 6.9425L12.555 6.995C12.8475 7.2875 12.8475 7.76 12.555 8.0525L8.115 12.5075C7.8075 12.8 7.335 12.8 7.035 12.5075Z" fill="#0033CC"/>
</g>
<defs>
<clipPath id="clip0_23_165">
<rect width="18" height="18" fill="white" transform="translate(0 0.5)"/>
</clipPath>
</defs>
</svg>
